%TF.GenerationSoftware,KiCad,Pcbnew,(6.0.1)*%
%TF.CreationDate,2022-03-25T16:32:43+01:00*%
%TF.ProjectId,pcb_capteur,7063625f-6361-4707-9465-75722e6b6963,rev?*%
%TF.SameCoordinates,Original*%
%TF.FileFunction,Legend,Top*%
%TF.FilePolarity,Positive*%
%FSLAX46Y46*%
G04 Gerber Fmt 4.6, Leading zero omitted, Abs format (unit mm)*
G04 Created by KiCad (PCBNEW (6.0.1)) date 2022-03-25 16:32:43*
%MOMM*%
%LPD*%
G01*
G04 APERTURE LIST*
%ADD10C,0.150000*%
%ADD11C,0.120000*%
%ADD12O,1.727200X2.032000*%
%ADD13C,4.064000*%
G04 APERTURE END LIST*
D10*
X139390380Y-120999285D02*
X139390380Y-121570714D01*
X139390380Y-121285000D02*
X138390380Y-121285000D01*
X138533238Y-121380238D01*
X138628476Y-121475476D01*
X138676095Y-121570714D01*
%TO.C,P1*%
X147089904Y-121737380D02*
X147089904Y-120737380D01*
X147470857Y-120737380D01*
X147566095Y-120785000D01*
X147613714Y-120832619D01*
X147661333Y-120927857D01*
X147661333Y-121070714D01*
X147613714Y-121165952D01*
X147566095Y-121213571D01*
X147470857Y-121261190D01*
X147089904Y-121261190D01*
X148613714Y-121737380D02*
X148042285Y-121737380D01*
X148328000Y-121737380D02*
X148328000Y-120737380D01*
X148232761Y-120880238D01*
X148137523Y-120975476D01*
X148042285Y-121023095D01*
%TO.C,P2*%
X167663904Y-121737380D02*
X167663904Y-120737380D01*
X168044857Y-120737380D01*
X168140095Y-120785000D01*
X168187714Y-120832619D01*
X168235333Y-120927857D01*
X168235333Y-121070714D01*
X168187714Y-121165952D01*
X168140095Y-121213571D01*
X168044857Y-121261190D01*
X167663904Y-121261190D01*
X168616285Y-120832619D02*
X168663904Y-120785000D01*
X168759142Y-120737380D01*
X168997238Y-120737380D01*
X169092476Y-120785000D01*
X169140095Y-120832619D01*
X169187714Y-120927857D01*
X169187714Y-121023095D01*
X169140095Y-121165952D01*
X168568666Y-121737380D01*
X169187714Y-121737380D01*
%TO.C,P3*%
X140485904Y-78811380D02*
X140485904Y-77811380D01*
X140866857Y-77811380D01*
X140962095Y-77859000D01*
X141009714Y-77906619D01*
X141057333Y-78001857D01*
X141057333Y-78144714D01*
X141009714Y-78239952D01*
X140962095Y-78287571D01*
X140866857Y-78335190D01*
X140485904Y-78335190D01*
X141390666Y-77811380D02*
X142009714Y-77811380D01*
X141676380Y-78192333D01*
X141819238Y-78192333D01*
X141914476Y-78239952D01*
X141962095Y-78287571D01*
X142009714Y-78382809D01*
X142009714Y-78620904D01*
X141962095Y-78716142D01*
X141914476Y-78763761D01*
X141819238Y-78811380D01*
X141533523Y-78811380D01*
X141438285Y-78763761D01*
X141390666Y-78716142D01*
%TO.C,P4*%
X164869904Y-78811380D02*
X164869904Y-77811380D01*
X165250857Y-77811380D01*
X165346095Y-77859000D01*
X165393714Y-77906619D01*
X165441333Y-78001857D01*
X165441333Y-78144714D01*
X165393714Y-78239952D01*
X165346095Y-78287571D01*
X165250857Y-78335190D01*
X164869904Y-78335190D01*
X166298476Y-78144714D02*
X166298476Y-78811380D01*
X166060380Y-77763761D02*
X165822285Y-78478047D01*
X166441333Y-78478047D01*
%TO.C,C2*%
X155950055Y-120660262D02*
X155902436Y-120707881D01*
X155759579Y-120755500D01*
X155664341Y-120755500D01*
X155521483Y-120707881D01*
X155426245Y-120612643D01*
X155378626Y-120517405D01*
X155331007Y-120326929D01*
X155331007Y-120184072D01*
X155378626Y-119993596D01*
X155426245Y-119898358D01*
X155521483Y-119803120D01*
X155664341Y-119755500D01*
X155759579Y-119755500D01*
X155902436Y-119803120D01*
X155950055Y-119850739D01*
X156331007Y-119850739D02*
X156378626Y-119803120D01*
X156473864Y-119755500D01*
X156711960Y-119755500D01*
X156807198Y-119803120D01*
X156854817Y-119850739D01*
X156902436Y-119945977D01*
X156902436Y-120041215D01*
X156854817Y-120184072D01*
X156283388Y-120755500D01*
X156902436Y-120755500D01*
%TO.C,R5*%
X151471333Y-112197380D02*
X151138000Y-111721190D01*
X150899904Y-112197380D02*
X150899904Y-111197380D01*
X151280857Y-111197380D01*
X151376095Y-111245000D01*
X151423714Y-111292619D01*
X151471333Y-111387857D01*
X151471333Y-111530714D01*
X151423714Y-111625952D01*
X151376095Y-111673571D01*
X151280857Y-111721190D01*
X150899904Y-111721190D01*
X152376095Y-111197380D02*
X151899904Y-111197380D01*
X151852285Y-111673571D01*
X151899904Y-111625952D01*
X151995142Y-111578333D01*
X152233238Y-111578333D01*
X152328476Y-111625952D01*
X152376095Y-111673571D01*
X152423714Y-111768809D01*
X152423714Y-112006904D01*
X152376095Y-112102142D01*
X152328476Y-112149761D01*
X152233238Y-112197380D01*
X151995142Y-112197380D01*
X151899904Y-112149761D01*
X151852285Y-112102142D01*
%TO.C,C4*%
X134606671Y-91250490D02*
X134654290Y-91298109D01*
X134701909Y-91440966D01*
X134701909Y-91536204D01*
X134654290Y-91679062D01*
X134559052Y-91774300D01*
X134463814Y-91821919D01*
X134273338Y-91869538D01*
X134130481Y-91869538D01*
X133940005Y-91821919D01*
X133844767Y-91774300D01*
X133749529Y-91679062D01*
X133701909Y-91536204D01*
X133701909Y-91440966D01*
X133749529Y-91298109D01*
X133797148Y-91250490D01*
X134035243Y-90393347D02*
X134701909Y-90393347D01*
X133654290Y-90631443D02*
X134368576Y-90869538D01*
X134368576Y-90250490D01*
%TO.C,C1*%
X136135142Y-111291666D02*
X136182761Y-111339285D01*
X136230380Y-111482142D01*
X136230380Y-111577380D01*
X136182761Y-111720238D01*
X136087523Y-111815476D01*
X135992285Y-111863095D01*
X135801809Y-111910714D01*
X135658952Y-111910714D01*
X135468476Y-111863095D01*
X135373238Y-111815476D01*
X135278000Y-111720238D01*
X135230380Y-111577380D01*
X135230380Y-111482142D01*
X135278000Y-111339285D01*
X135325619Y-111291666D01*
X136230380Y-110339285D02*
X136230380Y-110910714D01*
X136230380Y-110625000D02*
X135230380Y-110625000D01*
X135373238Y-110720238D01*
X135468476Y-110815476D01*
X135516095Y-110910714D01*
%TO.C,U1*%
X173040223Y-109600315D02*
X173849747Y-109600315D01*
X173944985Y-109552696D01*
X173992604Y-109505077D01*
X174040223Y-109409839D01*
X174040223Y-109219363D01*
X173992604Y-109124125D01*
X173944985Y-109076506D01*
X173849747Y-109028887D01*
X173040223Y-109028887D01*
X174040223Y-108028887D02*
X174040223Y-108600315D01*
X174040223Y-108314601D02*
X173040223Y-108314601D01*
X173183081Y-108409839D01*
X173278319Y-108505077D01*
X173325938Y-108600315D01*
%TO.C,U2*%
X153416095Y-88237380D02*
X153416095Y-89046904D01*
X153463714Y-89142142D01*
X153511333Y-89189761D01*
X153606571Y-89237380D01*
X153797047Y-89237380D01*
X153892285Y-89189761D01*
X153939904Y-89142142D01*
X153987523Y-89046904D01*
X153987523Y-88237380D01*
X154416095Y-88332619D02*
X154463714Y-88285000D01*
X154558952Y-88237380D01*
X154797047Y-88237380D01*
X154892285Y-88285000D01*
X154939904Y-88332619D01*
X154987523Y-88427857D01*
X154987523Y-88523095D01*
X154939904Y-88665952D01*
X154368476Y-89237380D01*
X154987523Y-89237380D01*
%TO.C,U3*%
X143631976Y-79317340D02*
X143631976Y-80126864D01*
X143679595Y-80222102D01*
X143727214Y-80269721D01*
X143822452Y-80317340D01*
X144012928Y-80317340D01*
X144108166Y-80269721D01*
X144155785Y-80222102D01*
X144203404Y-80126864D01*
X144203404Y-79317340D01*
X144584357Y-79317340D02*
X145203404Y-79317340D01*
X144870071Y-79698293D01*
X145012928Y-79698293D01*
X145108166Y-79745912D01*
X145155785Y-79793531D01*
X145203404Y-79888769D01*
X145203404Y-80126864D01*
X145155785Y-80222102D01*
X145108166Y-80269721D01*
X145012928Y-80317340D01*
X144727214Y-80317340D01*
X144631976Y-80269721D01*
X144584357Y-80222102D01*
%TO.C,C3*%
X169251333Y-89242142D02*
X169203714Y-89289761D01*
X169060857Y-89337380D01*
X168965619Y-89337380D01*
X168822761Y-89289761D01*
X168727523Y-89194523D01*
X168679904Y-89099285D01*
X168632285Y-88908809D01*
X168632285Y-88765952D01*
X168679904Y-88575476D01*
X168727523Y-88480238D01*
X168822761Y-88385000D01*
X168965619Y-88337380D01*
X169060857Y-88337380D01*
X169203714Y-88385000D01*
X169251333Y-88432619D01*
X169584666Y-88337380D02*
X170203714Y-88337380D01*
X169870380Y-88718333D01*
X170013238Y-88718333D01*
X170108476Y-88765952D01*
X170156095Y-88813571D01*
X170203714Y-88908809D01*
X170203714Y-89146904D01*
X170156095Y-89242142D01*
X170108476Y-89289761D01*
X170013238Y-89337380D01*
X169727523Y-89337380D01*
X169632285Y-89289761D01*
X169584666Y-89242142D01*
%TO.C,R2*%
X128057553Y-92735757D02*
X127581363Y-93069091D01*
X128057553Y-93307186D02*
X127057553Y-93307186D01*
X127057553Y-92926233D01*
X127105173Y-92830995D01*
X127152792Y-92783376D01*
X127248030Y-92735757D01*
X127390887Y-92735757D01*
X127486125Y-92783376D01*
X127533744Y-92830995D01*
X127581363Y-92926233D01*
X127581363Y-93307186D01*
X127152792Y-92354805D02*
X127105173Y-92307186D01*
X127057553Y-92211948D01*
X127057553Y-91973852D01*
X127105173Y-91878614D01*
X127152792Y-91830995D01*
X127248030Y-91783376D01*
X127343268Y-91783376D01*
X127486125Y-91830995D01*
X128057553Y-92402424D01*
X128057553Y-91783376D01*
%TO.C,R1*%
X141310380Y-111291666D02*
X140834190Y-111625000D01*
X141310380Y-111863095D02*
X140310380Y-111863095D01*
X140310380Y-111482142D01*
X140358000Y-111386904D01*
X140405619Y-111339285D01*
X140500857Y-111291666D01*
X140643714Y-111291666D01*
X140738952Y-111339285D01*
X140786571Y-111386904D01*
X140834190Y-111482142D01*
X140834190Y-111863095D01*
X141310380Y-110339285D02*
X141310380Y-110910714D01*
X141310380Y-110625000D02*
X140310380Y-110625000D01*
X140453238Y-110720238D01*
X140548476Y-110815476D01*
X140596095Y-110910714D01*
%TO.C,R4*%
X127310380Y-111291666D02*
X126834190Y-111625000D01*
X127310380Y-111863095D02*
X126310380Y-111863095D01*
X126310380Y-111482142D01*
X126358000Y-111386904D01*
X126405619Y-111339285D01*
X126500857Y-111291666D01*
X126643714Y-111291666D01*
X126738952Y-111339285D01*
X126786571Y-111386904D01*
X126834190Y-111482142D01*
X126834190Y-111863095D01*
X126643714Y-110434523D02*
X127310380Y-110434523D01*
X126262761Y-110672619D02*
X126977047Y-110910714D01*
X126977047Y-110291666D01*
%TO.C,R6*%
X119030380Y-96051666D02*
X118554190Y-96385000D01*
X119030380Y-96623095D02*
X118030380Y-96623095D01*
X118030380Y-96242142D01*
X118078000Y-96146904D01*
X118125619Y-96099285D01*
X118220857Y-96051666D01*
X118363714Y-96051666D01*
X118458952Y-96099285D01*
X118506571Y-96146904D01*
X118554190Y-96242142D01*
X118554190Y-96623095D01*
X118030380Y-95194523D02*
X118030380Y-95385000D01*
X118078000Y-95480238D01*
X118125619Y-95527857D01*
X118268476Y-95623095D01*
X118458952Y-95670714D01*
X118839904Y-95670714D01*
X118935142Y-95623095D01*
X118982761Y-95575476D01*
X119030380Y-95480238D01*
X119030380Y-95289761D01*
X118982761Y-95194523D01*
X118935142Y-95146904D01*
X118839904Y-95099285D01*
X118601809Y-95099285D01*
X118506571Y-95146904D01*
X118458952Y-95194523D01*
X118411333Y-95289761D01*
X118411333Y-95480238D01*
X118458952Y-95575476D01*
X118506571Y-95623095D01*
X118601809Y-95670714D01*
%TO.C,U4*%
X166840278Y-85218909D02*
X166840278Y-86028433D01*
X166887897Y-86123671D01*
X166935516Y-86171290D01*
X167030754Y-86218909D01*
X167221230Y-86218909D01*
X167316468Y-86171290D01*
X167364087Y-86123671D01*
X167411706Y-86028433D01*
X167411706Y-85218909D01*
X168316468Y-85552243D02*
X168316468Y-86218909D01*
X168078373Y-85171290D02*
X167840278Y-85885576D01*
X168459325Y-85885576D01*
%TO.C,R3*%
X129530380Y-92721666D02*
X129054190Y-93055000D01*
X129530380Y-93293095D02*
X128530380Y-93293095D01*
X128530380Y-92912142D01*
X128578000Y-92816904D01*
X128625619Y-92769285D01*
X128720857Y-92721666D01*
X128863714Y-92721666D01*
X128958952Y-92769285D01*
X129006571Y-92816904D01*
X129054190Y-92912142D01*
X129054190Y-93293095D01*
X128530380Y-92388333D02*
X128530380Y-91769285D01*
X128911333Y-92102619D01*
X128911333Y-91959761D01*
X128958952Y-91864523D01*
X129006571Y-91816904D01*
X129101809Y-91769285D01*
X129339904Y-91769285D01*
X129435142Y-91816904D01*
X129482761Y-91864523D01*
X129530380Y-91959761D01*
X129530380Y-92245476D01*
X129482761Y-92340714D01*
X129435142Y-92388333D01*
%TO.C,P1*%
X157988000Y-125095000D02*
X157988000Y-122555000D01*
X140208000Y-125095000D02*
X157988000Y-125095000D01*
X157988000Y-122555000D02*
X140208000Y-122555000D01*
X138938000Y-122275000D02*
X137388000Y-122275000D01*
X137388000Y-122275000D02*
X137388000Y-125375000D01*
X137388000Y-125375000D02*
X138938000Y-125375000D01*
X140208000Y-125095000D02*
X140208000Y-122555000D01*
%TO.C,P2*%
X163068000Y-125095000D02*
X163068000Y-122555000D01*
X161798000Y-122275000D02*
X160248000Y-122275000D01*
X175768000Y-122555000D02*
X163068000Y-122555000D01*
X163068000Y-125095000D02*
X175768000Y-125095000D01*
X175768000Y-125095000D02*
X175768000Y-122555000D01*
X160248000Y-122275000D02*
X160248000Y-125375000D01*
X160248000Y-125375000D02*
X161798000Y-125375000D01*
%TO.C,P3*%
X128244000Y-74015000D02*
X128244000Y-77115000D01*
X131064000Y-76835000D02*
X153924000Y-76835000D01*
X153924000Y-76835000D02*
X153924000Y-74295000D01*
X153924000Y-74295000D02*
X131064000Y-74295000D01*
X129794000Y-74015000D02*
X128244000Y-74015000D01*
X128244000Y-77115000D02*
X129794000Y-77115000D01*
X131064000Y-76835000D02*
X131064000Y-74295000D01*
%TO.C,P4*%
X175768000Y-74295000D02*
X157988000Y-74295000D01*
X155168000Y-77115000D02*
X156718000Y-77115000D01*
X157988000Y-76835000D02*
X175768000Y-76835000D01*
X157988000Y-76835000D02*
X157988000Y-74295000D01*
X156718000Y-74015000D02*
X155168000Y-74015000D01*
X175768000Y-76835000D02*
X175768000Y-74295000D01*
X155168000Y-74015000D02*
X155168000Y-77115000D01*
%TO.C,P5*%
X127254000Y-123825000D02*
G75*
G03*
X127254000Y-123825000I-2286000J0D01*
G01*
%TO.C,P6*%
X179324000Y-118745000D02*
G75*
G03*
X179324000Y-118745000I-2286000J0D01*
G01*
%TO.C,P7*%
X128524000Y-75565000D02*
G75*
G03*
X128524000Y-75565000I-2286000J0D01*
G01*
%TO.C,P8*%
X179324000Y-90805000D02*
G75*
G03*
X179324000Y-90805000I-2286000J0D01*
G01*
D11*
%TO.C,C2*%
X158036722Y-119303120D02*
X154196722Y-119303120D01*
X158036722Y-117463120D02*
X154196722Y-117463120D01*
%TO.C,R5*%
X149718000Y-112745000D02*
X149718000Y-114585000D01*
X149718000Y-114585000D02*
X153558000Y-114585000D01*
X154508000Y-113665000D02*
X153558000Y-113665000D01*
X153558000Y-112745000D02*
X149718000Y-112745000D01*
X153558000Y-114585000D02*
X153558000Y-112745000D01*
X148768000Y-113665000D02*
X149718000Y-113665000D01*
%TO.C,C4*%
X135379529Y-94703824D02*
X140119529Y-94703824D01*
X140119529Y-94703824D02*
X140119529Y-87463824D01*
X135379529Y-87463824D02*
X140119529Y-87463824D01*
X135379529Y-94703824D02*
X135379529Y-87463824D01*
%TO.C,C1*%
X134778000Y-109205000D02*
X134778000Y-113045000D01*
X132938000Y-109205000D02*
X132938000Y-113045000D01*
%TO.C,U1*%
X169287843Y-114298411D02*
X169287843Y-103378411D01*
X169287843Y-111378411D02*
X172587843Y-111378411D01*
X172587843Y-103378411D02*
X172587843Y-114298411D01*
X172587843Y-114298411D02*
X169287843Y-114298411D01*
X169287843Y-103378411D02*
X172587843Y-103378411D01*
%TO.C,U2*%
X148418000Y-89785000D02*
X148418000Y-100405000D01*
X156098000Y-89785000D02*
X156098000Y-90145000D01*
X152258001Y-90145000D02*
X152258001Y-89785000D01*
X152258001Y-89785000D02*
X148418000Y-89785000D01*
X159938000Y-100405000D02*
X159938000Y-89785000D01*
X156098000Y-90145000D02*
X152258001Y-90145000D01*
X159938000Y-89785000D02*
X156098000Y-89785000D01*
X148418000Y-100405000D02*
X159938000Y-100405000D01*
%TO.C,U3*%
X138933881Y-80864960D02*
X149853881Y-80864960D01*
X149853881Y-84164960D02*
X138933881Y-84164960D01*
X149853881Y-80864960D02*
X149853881Y-84164960D01*
X138933881Y-84164960D02*
X138933881Y-80864960D01*
X146933881Y-84164960D02*
X146933881Y-80864960D01*
%TO.C,C3*%
X167498000Y-91725000D02*
X171338000Y-91725000D01*
X167498000Y-89885000D02*
X171338000Y-89885000D01*
%TO.C,R2*%
X126605173Y-90649091D02*
X124765173Y-90649091D01*
X124765173Y-94489091D02*
X126605173Y-94489091D01*
X126605173Y-94489091D02*
X126605173Y-90649091D01*
X125685173Y-89699091D02*
X125685173Y-90649091D01*
X124765173Y-90649091D02*
X124765173Y-94489091D01*
X125685173Y-95439091D02*
X125685173Y-94489091D01*
%TO.C,R1*%
X139858000Y-113045000D02*
X139858000Y-109205000D01*
X139858000Y-109205000D02*
X138018000Y-109205000D01*
X138938000Y-108255000D02*
X138938000Y-109205000D01*
X138938000Y-113995000D02*
X138938000Y-113045000D01*
X138018000Y-113045000D02*
X139858000Y-113045000D01*
X138018000Y-109205000D02*
X138018000Y-113045000D01*
%TO.C,R4*%
X128778000Y-113995000D02*
X128778000Y-113045000D01*
X127858000Y-113045000D02*
X129698000Y-113045000D01*
X129698000Y-113045000D02*
X129698000Y-109205000D01*
X127858000Y-109205000D02*
X127858000Y-113045000D01*
X128778000Y-108255000D02*
X128778000Y-109205000D01*
X129698000Y-109205000D02*
X127858000Y-109205000D01*
%TO.C,R6*%
X114578000Y-91635000D02*
X117578000Y-91635000D01*
X117578000Y-91635000D02*
X117578000Y-100135000D01*
X114578000Y-95885000D02*
X117578000Y-95885000D01*
X114578000Y-100135000D02*
X114578000Y-91635000D01*
X117578000Y-100135000D02*
X114578000Y-100135000D01*
%TO.C,U4*%
X163792183Y-81466529D02*
X163792183Y-84766529D01*
X160872183Y-84766529D02*
X160872183Y-81466529D01*
X174332183Y-81466529D02*
X174332183Y-84766529D01*
X174332183Y-84766529D02*
X160872183Y-84766529D01*
X160872183Y-81466529D02*
X174332183Y-81466529D01*
%TO.C,R3*%
X130998000Y-89685000D02*
X130998000Y-90635000D01*
X130078000Y-94475000D02*
X131918000Y-94475000D01*
X131918000Y-90635000D02*
X130078000Y-90635000D01*
X131918000Y-94475000D02*
X131918000Y-90635000D01*
X130998000Y-95425000D02*
X130998000Y-94475000D01*
X130078000Y-90635000D02*
X130078000Y-94475000D01*
%TD*%
D12*
%TO.C,P1*%
X138938000Y-123825000D03*
X141478000Y-123825000D03*
X144018000Y-123825000D03*
X146558000Y-123825000D03*
X149098000Y-123825000D03*
X151638000Y-123825000D03*
X154178000Y-123825000D03*
X156718000Y-123825000D03*
%TD*%
%TO.C,P2*%
X161798000Y-123825000D03*
X164338000Y-123825000D03*
X166878000Y-123825000D03*
X169418000Y-123825000D03*
X171958000Y-123825000D03*
X174498000Y-123825000D03*
%TD*%
%TO.C,P3*%
X129794000Y-75565000D03*
X132334000Y-75565000D03*
X134874000Y-75565000D03*
X137414000Y-75565000D03*
X139954000Y-75565000D03*
X142494000Y-75565000D03*
X145034000Y-75565000D03*
X147574000Y-75565000D03*
X150114000Y-75565000D03*
X152654000Y-75565000D03*
%TD*%
%TO.C,P4*%
X156718000Y-75565000D03*
X159258000Y-75565000D03*
X161798000Y-75565000D03*
X164338000Y-75565000D03*
X166878000Y-75565000D03*
X169418000Y-75565000D03*
X171958000Y-75565000D03*
X174498000Y-75565000D03*
%TD*%
D13*
%TO.C,P5*%
X124968000Y-123825000D03*
%TD*%
%TO.C,P6*%
X177038000Y-118745000D03*
%TD*%
%TO.C,P7*%
X126238000Y-75565000D03*
%TD*%
%TO.C,P8*%
X177038000Y-90805000D03*
%TD*%
M02*
