M48
; DRILL file {KiCad (6.0.1)} date Fri Mar 25 16:33:13 2022
; FORMAT={-:-/ absolute / inch / decimal}
; #@! TF.CreationDate,2022-03-25T16:33:13+01:00
; #@! TF.GenerationSoftware,Kicad,Pcbnew,(6.0.1)
; #@! TF.FileFunction,Plated,1,2,PTH
FMAT,2
INCH
; #@! TA.AperFunction,Plated,PTH,ComponentDrill
T1C0.0315
; #@! TA.AperFunction,Plated,PTH,ComponentDrill
T2C0.0394
; #@! TA.AperFunction,Plated,PTH,ComponentDrill
T3C0.0400
; #@! TA.AperFunction,Plated,PTH,ComponentDrill
T4C0.1200
%
G90
G05
T1
X4.57Y-3.6667
X4.57Y-3.8833
X4.9482Y-3.4945
X4.9482Y-3.7945
X5.07Y-4.225
X5.07Y-4.525
X5.1574Y-3.4939
X5.1574Y-3.7939
X5.27Y-4.275
X5.27Y-4.475
X5.4232Y-3.4876
X5.4232Y-3.6844
X5.47Y-4.225
X5.47Y-4.525
X5.5348Y-3.2486
X5.6348Y-3.2486
X5.7348Y-3.2486
X5.82Y-4.475
X5.8348Y-3.2486
X6.0463Y-4.6608
X6.12Y-4.475
X6.2463Y-4.6608
X6.3985Y-3.2723
X6.4985Y-3.2723
X6.57Y-3.575
X6.5985Y-3.2723
X6.6985Y-3.2723
X6.7298Y-4.135
X6.7298Y-4.235
X6.7298Y-4.335
X6.7298Y-4.435
X6.77Y-3.575
X6.7985Y-3.2723
T2
X5.922Y-3.5939
X5.922Y-3.6939
X5.922Y-3.7939
X5.922Y-3.8939
X6.218Y-3.5939
X6.218Y-3.6939
X6.218Y-3.7939
X6.218Y-3.8939
T3
X5.11Y-2.975
X5.21Y-2.975
X5.31Y-2.975
X5.41Y-2.975
X5.47Y-4.875
X5.51Y-2.975
X5.57Y-4.875
X5.61Y-2.975
X5.67Y-4.875
X5.71Y-2.975
X5.77Y-4.875
X5.81Y-2.975
X5.87Y-4.875
X5.91Y-2.975
X5.97Y-4.875
X6.01Y-2.975
X6.07Y-4.875
X6.17Y-2.975
X6.17Y-4.875
X6.27Y-2.975
X6.37Y-2.975
X6.37Y-4.875
X6.47Y-2.975
X6.47Y-4.875
X6.57Y-2.975
X6.57Y-4.875
X6.67Y-2.975
X6.67Y-4.875
X6.77Y-2.975
X6.77Y-4.875
X6.87Y-2.975
X6.87Y-4.875
T4
X4.92Y-4.875
X4.97Y-2.975
X6.97Y-3.575
X6.97Y-4.675
T0
M30
